HIERARCHY
ROOT Hips
{
	OFFSET 0.000000 0.000000 0.000000
	CHANNELS 6 Xposition Yposition Zposition Xrotation Yrotation Zrotation
	JOINT LeftUpLeg_virtual
	{
		OFFSET 0.000000 0.000000 0.000000
		CHANNELS 3 Xrotation Yrotation Zrotation
		JOINT LeftUpLeg
		{
			OFFSET 13.026900 -6.336304 -1.092800
			CHANNELS 3 Xrotation Yrotation Zrotation
			JOINT LeftLeg
			{
				OFFSET 0.524474 -46.096886 9.782700
				CHANNELS 3 Xrotation Yrotation Zrotation
				JOINT LeftFoot
				{
					OFFSET -0.524474 -53.427422 -12.948200
					CHANNELS 3 Xrotation Yrotation Zrotation
					JOINT LeftToeBase
					{
						OFFSET 0.192200 -14.009700 16.364100
						CHANNELS 3 Xrotation Yrotation Zrotation
						JOINT LeftToe_End
						{
							OFFSET -1.784700 -0.561700 9.474800
							CHANNELS 3 Xrotation Yrotation Zrotation
							End Site
							{
								OFFSET 0 0 0
							}
						}
					}
				}
			}
		}
	}
	JOINT RightUpLeg_virtual
	{
		OFFSET 0.000000 0.000000 0.000000
		CHANNELS 3 Xrotation Yrotation Zrotation
		JOINT RightUpLeg
		{
			OFFSET -12.883000 -6.336304 -1.092800
			CHANNELS 3 Xrotation Yrotation Zrotation
			JOINT RightLeg
			{
				OFFSET -0.524587 -46.096825 9.782800
				CHANNELS 3 Xrotation Yrotation Zrotation
				JOINT RightFoot
				{
					OFFSET 0.524587 -53.427383 -12.948300
					CHANNELS 3 Xrotation Yrotation Zrotation
					JOINT RightToeBase
					{
						OFFSET -0.192200 -14.009700 16.364100
						CHANNELS 3 Xrotation Yrotation Zrotation
						JOINT RightToe_End
						{
							OFFSET 1.784700 -0.561700 9.474800
							CHANNELS 3 Xrotation Yrotation Zrotation
							End Site
							{
								OFFSET 0 0 0
							}
						}
					}
				}
			}
		}
	}
	JOINT Spine_virtual
	{
		OFFSET 0.000000 0.000000 0.000000
		CHANNELS 3 Xrotation Yrotation Zrotation
		JOINT Spine
		{
			OFFSET 0.072000 7.257294 -0.789700
			CHANNELS 3 Xrotation Yrotation Zrotation
			JOINT Spine1
			{
				OFFSET 0.000000 12.508769 -0.658067
				CHANNELS 3 Xrotation Yrotation Zrotation
				JOINT Spine1_split
				{
					OFFSET 0.000000 12.508769 -0.658067
					CHANNELS 3 Xrotation Yrotation Zrotation
					JOINT Spine2
					{
						OFFSET 0.000000 12.508769 -0.658067
						CHANNELS 3 Xrotation Yrotation Zrotation
						JOINT Neck_virtual
						{
							OFFSET 0.000000 0.000000 0.000000
							CHANNELS 3 Xrotation Yrotation Zrotation
							JOINT Neck
							{
								OFFSET 0.000000 14.033295 7.520400
								CHANNELS 3 Xrotation Yrotation Zrotation
								JOINT Head
								{
									OFFSET 0.000000 8.198502 5.703100
									CHANNELS 3 Xrotation Yrotation Zrotation
									JOINT HeadTop_End
									{
										OFFSET 0.000000 17.760803 13.332701
										CHANNELS 3 Xrotation Yrotation Zrotation
										End Site
										{
											OFFSET 0 0 0
										}
									}
								}
							}
						}
						JOINT LeftShoulder_virtual
						{
							OFFSET 0.000000 0.000000 0.000000
							CHANNELS 3 Xrotation Yrotation Zrotation
							JOINT LeftShoulder
							{
								OFFSET 6.292450 5.785301 -0.669000
								CHANNELS 3 Xrotation Yrotation Zrotation
								JOINT LeftShoulder_split
								{
									OFFSET 6.292450 5.785301 -0.669000
									CHANNELS 3 Xrotation Yrotation Zrotation
									JOINT LeftArm
									{
										OFFSET 13.907140 -6.093903 1.965100
										CHANNELS 3 Xrotation Yrotation Zrotation
										JOINT LeftForeArm
										{
											OFFSET 34.140198 0.000000 0.000000
											CHANNELS 3 Xrotation Yrotation Zrotation
											JOINT LeftHand
											{
												OFFSET 40.960209 0.000000 0.000000
												CHANNELS 3 Xrotation Yrotation Zrotation
												End Site
												{
													OFFSET 0 0 0
												}
											}
										}
									}
								}
							}
						}
						JOINT RightShoulder_virtual
						{
							OFFSET 0.000000 0.000000 0.000000
							CHANNELS 3 Xrotation Yrotation Zrotation
							JOINT RightShoulder
							{
								OFFSET -6.292450 5.785301 -0.669000
								CHANNELS 3 Xrotation Yrotation Zrotation
								JOINT RightShoulder_split
								{
									OFFSET -6.292450 5.785301 -0.669000
									CHANNELS 3 Xrotation Yrotation Zrotation
									JOINT RightArm
									{
										OFFSET -13.907140 -6.093903 1.965100
										CHANNELS 3 Xrotation Yrotation Zrotation
										JOINT RightForeArm
										{
											OFFSET -34.140198 0.000000 0.000000
											CHANNELS 3 Xrotation Yrotation Zrotation
											JOINT RightHand
											{
												OFFSET -40.960209 0.000000 0.000000
												CHANNELS 3 Xrotation Yrotation Zrotation
												End Site
												{
													OFFSET 0 0 0
												}
											}
										}
									}
								}
							}
						}
					}
				}
			}
		}
	}
}
MOTION
Frames: 11
Frame Time: 0.03333333
-0.872620 114.723732 -3.191843 0.000000 0.000000 0.000000 -5.109687 -3.777311 0.245530 -7.026849 4.877414 8.199832 19.047246 8.603727 -0.092251 -4.631240 3.890869 -6.991592 1.426488 -0.073725 -0.342589 0.000000 0.000000 0.000000 -4.903954 -3.105658 0.202919 -6.226231 -9.842883 -8.314414 19.249456 -7.866784 0.214718 -5.501074 -5.766144 6.428519 -2.030017 0.063806 0.062996 0.000000 0.000000 0.000000 -4.954710 -3.482855 -0.083298 4.558744 1.594981 -2.262904 1.244321 0.391879 0.161157 0.771613 -0.867424 0.073508 0.000000 0.000000 0.000000 0.607948 0.674875 0.075468 2.170431 -0.573337 -0.100533 18.795615 -10.559342 0.472886 0.000000 0.000000 0.000000 0.486685 0.544682 0.047538 2.575031 -4.044099 -11.762768 -1.241501 -0.666380 -1.904240 -3.185488 -8.298709 -58.429379 -1.236453 -11.278244 0.372989 0.000000 0.000000 0.000000 0.495055 0.413098 0.158439 2.730827 1.163261 15.541788 -1.299772 1.108488 -1.711207 -1.144264 9.093153 64.067516 -0.287055 14.734214 1.324294 0.000000 0.000000 0.000000 
-0.837259 114.758141 -3.499243 0.000000 0.000000 0.000000 -5.213317 -3.677841 0.268305 -7.175200 4.778924 8.186767 19.203330 8.511504 -0.080807 -4.493591 3.694264 -7.076084 1.351616 -0.076531 -0.319492 0.000000 0.000000 0.000000 -5.024295 -2.934095 0.224678 -6.091982 -9.873630 -8.267375 19.163528 -7.837383 0.152377 -5.562070 -5.842466 6.412425 -1.749869 0.058552 0.060668 0.000000 0.000000 0.000000 -5.052963 -3.212703 0.010798 4.580812 1.692209 -2.187119 1.262985 0.422483 0.136622 0.821600 -0.627049 0.152950 0.000000 0.000000 0.000000 0.558288 0.681854 0.074609 2.194757 -0.631955 -0.100967 18.769956 -10.645802 0.571136 0.000000 0.000000 0.000000 0.492392 0.567259 0.013471 2.521228 -3.927854 -11.862471 -1.377533 -0.235289 -2.128762 -2.385382 -7.656198 -58.300364 -1.223850 -10.688286 0.426566 0.000000 0.000000 0.000000 0.530068 0.457400 0.136483 2.721309 1.318464 15.527918 -1.379462 1.505621 -1.886993 -1.890101 9.379667 64.068759 -0.214426 15.375854 1.161385 0.000000 0.000000 0.000000 
-0.874028 114.722198 -3.872835 0.000000 0.000000 0.000000 -5.403644 -3.218435 0.388310 -7.540794 4.658922 8.091869 19.584137 8.362908 -0.075678 -4.444870 3.317134 -7.037046 1.263089 -0.087616 -0.283847 0.000000 0.000000 0.000000 -5.237352 -2.372912 0.333617 -5.892199 -9.905980 -8.177881 19.380747 -7.842417 0.100296 -5.861021 -6.184414 6.325324 -1.600191 0.045416 0.043748 0.000000 0.000000 0.000000 -5.292434 -2.677164 0.148281 4.726854 1.850193 -2.074556 1.284610 0.471052 0.124883 0.869111 -0.553296 0.199991 0.000000 0.000000 0.000000 0.517303 0.711208 0.088644 2.163823 -0.727945 -0.089157 18.707796 -10.944210 0.762293 0.000000 0.000000 0.000000 0.516311 0.606396 -0.006726 2.467732 -3.869290 -11.978046 -1.568321 -0.079100 -2.146620 -1.353470 -6.530039 -58.335000 -1.088805 -9.726181 0.524020 0.000000 0.000000 0.000000 0.583682 0.522916 0.127542 2.694368 1.521748 15.579381 -1.272510 1.629928 -1.954583 -2.939930 10.212083 63.767445 -0.122634 16.416802 1.006225 0.000000 0.000000 0.000000 
-0.986389 114.647484 -4.244562 0.000000 0.000000 0.000000 -5.656242 -2.481664 0.571885 -8.041235 4.527079 7.942223 20.142764 8.173234 -0.065277 -4.507585 2.833063 -6.883461 1.191127 -0.104170 -0.249637 0.000000 0.000000 0.000000 -5.530291 -1.556499 0.512436 -5.636646 -9.930538 -8.063502 19.830877 -7.876937 0.061201 -6.363456 -6.752311 6.152561 -1.558942 0.023480 0.023332 0.000000 0.000000 0.000000 -5.626450 -1.980203 0.310818 4.965340 2.055702 -1.955613 1.298669 0.531973 0.124751 0.904261 -0.549245 0.208935 0.000000 0.000000 0.000000 0.494445 0.759677 0.114031 2.079896 -0.847645 -0.072387 18.633144 -11.417574 1.021249 0.000000 0.000000 0.000000 0.560414 0.659191 -0.005294 2.435081 -3.864978 -12.076387 -1.678936 -0.232348 -2.009996 -0.251492 -5.147851 -58.496178 -0.871126 -8.658160 0.624957 0.000000 0.000000 0.000000 0.646010 0.599154 0.133925 2.654950 1.733893 15.717462 -1.076392 1.500143 -1.901349 -4.014989 11.302642 63.246438 -0.021268 17.674725 0.881375 0.000000 0.000000 0.000000 
-1.131986 114.542259 -4.634226 0.000000 0.000000 0.000000 -5.953339 -1.597463 0.782679 -8.587474 4.394495 7.788040 20.787932 7.956828 -0.043122 -4.658642 2.321286 -6.680620 1.155905 -0.122057 -0.226812 0.000000 0.000000 0.000000 -5.881058 -0.654022 0.726614 -5.384116 -9.925908 -7.935228 20.415070 -7.931140 0.043416 -6.944842 -7.464090 5.889384 -1.517899 -0.002619 0.007672 0.000000 0.000000 0.000000 -6.028354 -1.212071 0.490624 5.247256 2.298594 -1.856373 1.301415 0.602711 0.136943 0.916174 -0.530273 0.208185 0.000000 0.000000 0.000000 0.497098 0.824596 0.148659 1.980240 -0.984901 -0.056296 18.579175 -12.013008 1.321950 0.000000 0.000000 0.000000 0.617632 0.725121 0.014116 2.434111 -3.886427 -12.157674 -1.681419 -0.494734 -1.802209 0.850533 -3.659554 -58.757863 -0.631997 -7.644586 0.676165 0.000000 0.000000 0.000000 0.705190 0.677510 0.154262 2.619376 1.931480 15.925908 -0.831110 1.330435 -1.842540 -4.952334 12.353305 62.673433 0.062263 19.092230 0.815776 0.000000 0.000000 0.000000 
-1.288434 114.430084 -4.973837 0.000000 0.000000 0.000000 -6.264283 -0.709735 0.986870 -9.092674 4.280060 7.674221 21.421599 7.735695 -0.022486 -4.886092 1.859519 -6.483420 1.164919 -0.137718 -0.218040 0.000000 0.000000 0.000000 -6.252439 0.198335 0.940565 -5.177353 -9.899397 -7.811522 21.037616 -7.982037 0.061723 -7.417730 -8.215705 5.605807 -1.434524 -0.024760 0.001019 0.000000 0.000000 0.000000 -6.438396 -0.446099 0.675594 5.530323 2.563376 -1.792744 1.283903 0.679720 0.158329 0.955367 -0.521393 0.147255 0.000000 0.000000 0.000000 0.518105 0.904418 0.187480 1.908804 -1.125098 -0.048407 18.566027 -12.676910 1.650794 0.000000 0.000000 0.000000 0.676270 0.802880 0.051402 2.461987 -3.910775 -12.181648 -1.642907 -0.759129 -1.639427 1.921364 -2.224285 -59.039759 -0.433954 -6.787289 0.653751 0.000000 0.000000 0.000000 0.755841 0.754659 0.186321 2.597268 2.111811 16.157492 -0.582079 1.220938 -1.788292 -5.644103 13.166164 62.198086 0.115194 20.606326 0.818704 0.000000 0.000000 0.000000 
-1.441582 114.338402 -5.265295 0.000000 0.000000 0.000000 -6.570859 0.087840 1.156145 -9.527696 4.206824 7.626772 21.981844 7.532958 -0.020995 -5.154264 1.482446 -6.317230 1.193038 -0.148169 -0.215632 0.000000 0.000000 0.000000 -6.621408 0.944702 1.128756 -5.021662 -9.843926 -7.694377 21.563305 -8.009759 0.099613 -7.639100 -8.940571 5.418240 -1.393521 -0.036211 -0.002625 0.000000 0.000000 0.000000 -6.837629 0.284736 0.851099 5.781840 2.834894 -1.764207 1.249861 0.765136 0.186082 0.992768 -0.516950 0.112777 0.000000 0.000000 0.000000 0.551141 0.993006 0.230906 1.892678 -1.257003 -0.048154 18.594481 -13.373862 2.005024 0.000000 0.000000 0.000000 0.728056 0.888194 0.098049 2.506365 -3.945205 -12.130185 -1.619354 -0.959869 -1.572714 3.030112 -0.887498 -59.275715 -0.309239 -6.136002 0.576067 0.000000 0.000000 0.000000 0.788821 0.829971 0.217954 2.579199 2.282394 16.355622 -0.360555 1.188738 -1.767147 -6.145213 13.652758 61.926737 0.143347 22.138771 0.850445 0.000000 0.000000 0.000000 
-1.587773 114.268074 -5.515520 0.000000 0.000000 0.000000 -6.862915 0.757916 1.282049 -9.855527 4.178527 7.661151 22.456757 7.346931 -0.050762 -5.446044 1.204000 -6.197374 1.215504 -0.149366 -0.214665 0.000000 0.000000 0.000000 -6.948305 1.566460 1.274174 -4.894895 -9.736937 -7.587042 21.865239 -7.993060 0.125486 -7.597982 -9.583625 5.382552 -1.439815 -0.035674 -0.005830 0.000000 0.000000 0.000000 -7.201553 0.952689 1.001785 5.981467 3.100300 -1.763620 1.217576 0.857007 0.214467 0.985358 -0.520156 0.116236 0.000000 0.000000 0.000000 0.576588 1.083397 0.273643 1.940095 -1.373517 -0.060937 18.619811 -14.078692 2.381528 0.000000 0.000000 0.000000 0.768635 0.977362 0.141819 2.547155 -4.017023 -11.989270 -1.590222 -1.055581 -1.628553 4.177111 0.331753 -59.479739 -0.260951 -5.763141 0.476555 0.000000 0.000000 0.000000 0.804275 0.909073 0.243211 2.568732 2.452276 16.468170 -0.189335 1.214322 -1.740840 -6.481032 13.908162 61.853688 0.149821 23.617945 0.894789 0.000000 0.000000 0.000000 
-1.708224 114.231972 -5.756811 0.000000 0.000000 0.000000 -7.124841 1.321172 1.359498 -10.092552 4.163417 7.751862 22.876254 7.170053 -0.107426 -5.742113 1.033869 -6.121584 1.237879 -0.141394 -0.211854 0.000000 0.000000 0.000000 -7.208740 2.089848 1.360808 -4.735309 -9.605438 -7.501674 21.928633 -7.947961 0.130184 -7.391836 -10.125577 5.471883 -1.506966 -0.022174 -0.003680 0.000000 0.000000 0.000000 -7.478506 1.546444 1.129713 6.135880 3.342202 -1.771127 1.190104 0.948014 0.235912 0.953712 -0.501294 0.135000 0.000000 0.000000 0.000000 0.575881 1.166110 0.309329 2.012162 -1.470206 -0.089873 18.568913 -14.762458 2.781949 0.000000 0.000000 0.000000 0.794681 1.063133 0.176128 2.567981 -4.146706 -11.774406 -1.538205 -1.053373 -1.771403 5.298043 1.405083 -59.689296 -0.241195 -5.718174 0.397660 0.000000 0.000000 0.000000 0.819980 0.992338 0.261366 2.564032 2.638841 16.475108 -0.145338 1.235356 -1.640273 -6.673422 14.080617 61.891069 0.158650 24.932289 0.936211 0.000000 0.000000 0.000000 
-1.807699 114.213654 -6.004473 0.000000 0.000000 0.000000 -7.342702 1.830688 1.403310 -10.291218 4.136666 7.848469 23.277010 6.999394 -0.174865 -6.037070 0.958467 -6.073202 1.251309 -0.128806 -0.202670 0.000000 0.000000 0.000000 -7.403804 2.543918 1.408218 -4.560977 -9.471446 -7.440970 21.876546 -7.898057 0.124329 -7.179220 -10.594954 5.615164 -1.523171 0.001198 0.010978 0.000000 0.000000 0.000000 -7.677807 2.093693 1.239107 6.278180 3.543458 -1.765607 1.177014 1.033499 0.247784 0.943381 -0.437359 0.160354 0.000000 0.000000 0.000000 0.558726 1.235759 0.335760 2.068203 -1.547583 -0.129757 18.365206 -15.403634 3.193155 0.000000 0.000000 0.000000 0.812388 1.138597 0.198272 2.567137 -4.337039 -11.531347 -1.427010 -0.989153 -1.879425 6.360955 2.301806 -59.975659 -0.193294 -6.004579 0.347232 0.000000 0.000000 0.000000 0.845979 1.071616 0.270514 2.561936 2.844615 16.390857 -0.153774 1.246799 -1.552333 -6.758547 14.277853 61.921382 0.159396 26.088259 0.974091 0.000000 0.000000 0.000000 
-1.890635 114.179344 -6.251928 0.000000 0.000000 0.000000 -7.519230 2.332139 1.436107 -10.490273 4.081718 7.906767 23.661802 6.839644 -0.240721 -6.368704 0.961810 -6.019427 1.254743 -0.118394 -0.184285 0.000000 0.000000 0.000000 -7.539227 2.969575 1.440008 -4.445326 -9.359815 -7.412440 21.883042 -7.850457 0.124718 -7.101343 -11.000899 5.763154 -1.494807 0.028442 0.036947 0.000000 0.000000 0.000000 -7.799844 2.602471 1.343250 6.437553 3.689783 -1.745937 1.180919 1.106722 0.249883 0.944627 -0.368891 0.163834 0.000000 0.000000 0.000000 0.541648 1.289994 0.351469 2.073971 -1.605284 -0.176685 17.955591 -16.002505 3.614317 0.000000 0.000000 0.000000 0.830787 1.199368 0.209063 2.549267 -4.581631 -11.271773 -1.291179 -0.891010 -1.954315 7.309349 2.964609 -60.373545 -0.089378 -6.520258 0.324592 0.000000 0.000000 0.000000 0.886996 1.139011 0.275331 2.564802 3.069478 16.249428 -0.170522 1.244209 -1.490587 -6.742051 14.562086 61.884902 0.149146 27.179845 1.004781 0.000000 0.000000 0.000000 
